<svg width="34" height="28" viewBox="0 0 34 28" fill="none" xmlns="http://www.w3.org/2000/svg">
<mask id="path-1-inside-1_211_1896" fill="white">
<path fill-rule="evenodd" clip-rule="evenodd" d="M22.7736 5.10001L21.2162 5.69217C21.0686 5.74759 20.9691 5.7753 20.8253 5.83219C20.756 5.85917 20.689 5.87813 20.6453 5.89198C20.4683 5.94887 20.0089 6.17785 19.6835 6.25078C19.6775 6.25515 19.6677 6.25297 19.6647 6.26172L19.6052 6.29016C19.5653 6.3062 19.5352 6.31277 19.4938 6.32662L17.7811 6.9691C17.2012 7.21996 16.018 7.61303 15.3832 7.85587L13.5041 8.55231L11.3908 9.35376C10.9683 9.51858 10.5021 9.65714 10.0819 9.84091L9.54412 10.04C9.4319 10.0859 9.40178 10.1049 9.27073 10.1406C9.2632 10.1428 9.2278 10.1523 9.22178 10.1545C9.21801 10.1559 9.21048 10.1596 9.20672 10.1611L7.7238 10.7226C7.53928 10.7904 7.36079 10.8444 7.18606 10.9209C7.0023 11.0012 6.85016 11.0544 6.65435 11.1251L5.90272 11.4044C5.47419 11.5685 5.04641 11.6903 4.65177 11.9193C4.21646 12.1731 3.74876 12.5917 4.15696 13.0861L4.24734 13.1722C4.68566 13.5346 5.82515 13.7577 6.43745 13.9568C6.80949 14.0779 7.16422 14.1712 7.5438 14.2945L8.98379 14.7459C8.98755 14.7473 8.99584 14.7503 8.9996 14.751L10.2784 15.128C10.6143 15.2206 10.6957 15.3483 10.9434 15.1922L12.0588 14.5176C12.0905 14.4972 12.0761 14.506 12.1123 14.4826C12.4926 14.2383 13.8852 13.372 14.2271 13.194C14.3476 13.132 14.3589 13.1102 14.4606 13.0453L14.9057 12.7908C14.9087 12.7893 14.9162 12.7856 14.9192 12.7835C14.9222 12.782 14.9298 12.7776 14.9328 12.7754L15.5375 12.3911C16.3728 11.9069 17.1854 11.3796 18.0138 10.8765L19.8266 9.78403C19.9833 9.68631 20.1219 9.59515 20.2793 9.50107L21.6665 8.66024C21.6718 8.6566 21.6793 8.65222 21.6846 8.64857L22.684 8.03454C22.7608 7.98568 22.8459 7.93682 22.9235 7.89233L24.2889 7.05661C24.4968 6.92097 25.0873 6.56436 25.3283 6.91294C25.2838 7.09672 25.1181 7.25351 24.9638 7.36217L24.7717 7.52406C24.7378 7.55688 24.7295 7.56125 24.6934 7.59261C24.6889 7.59626 24.6821 7.60136 24.6776 7.60574L24.118 8.09944C24.002 8.21321 23.9079 8.27155 23.7911 8.38677L22.6464 9.37856C22.5846 9.43617 22.5469 9.48357 22.4837 9.53754L22.2856 9.69141C22.26 9.71693 22.2705 9.70891 22.2427 9.7359C22.2216 9.75704 22.2276 9.75267 22.1982 9.77892L20.1588 11.5445C20.0872 11.648 20.0383 11.6801 19.9471 11.7421L19.789 11.877C19.7845 11.8806 19.7777 11.8865 19.7739 11.8901L19.2746 12.3277C19.2174 12.3794 19.1842 12.4196 19.127 12.4728L17.3413 14.0225C17.3345 14.0283 17.3157 14.0436 17.3089 14.0494C17.3044 14.0531 17.2984 14.0589 17.2939 14.0626C17.2893 14.067 17.2826 14.0728 17.278 14.0764L16.8954 14.425C16.7697 14.5227 16.7049 14.5964 16.5769 14.6919L15.9698 15.2265C15.9653 15.2301 15.9585 15.2359 15.954 15.2396L14.1646 16.8155C14.1066 16.8994 14.1013 17.1597 14.0953 17.2968L13.9914 18.7787C13.9507 18.9676 13.8754 20.7994 13.8227 21.1736L13.712 22.7057C14.3514 22.7057 14.615 22.422 14.9373 22.1092C15.1015 21.9502 15.2483 21.8372 15.4133 21.6775C15.5549 21.5396 15.7288 21.3486 15.8765 21.2348C16.0745 21.0817 16.5204 20.6295 16.8246 20.3692L17.7819 19.4839L18.1441 19.7376C18.1494 19.7413 18.1569 19.7457 18.1615 19.7493L20.1588 21.1816L23.6902 23.7085C23.694 23.7099 23.7015 23.7143 23.7045 23.7157L24.2182 23.925C24.6663 24.0614 25.0067 24.0111 25.3072 23.7792C25.3403 23.7537 25.3629 23.7354 25.3878 23.7128C25.4179 23.6866 25.4503 23.6574 25.4759 23.6253C25.4796 23.6202 25.4842 23.6136 25.4879 23.6085L25.5437 23.5181C25.8969 22.9537 25.8909 22.6044 26.0279 22.0027C26.0279 22.002 26.0452 21.9342 26.046 21.9334L26.0709 21.8715C26.0822 21.7402 26.1288 21.571 26.1529 21.4623L28.1051 12.5603C28.2015 12.0338 28.3506 11.4876 28.4583 10.9662L28.6865 9.92113C28.752 9.66589 28.8281 9.17145 28.9267 8.81484L29.237 7.36071C29.3658 6.79699 29.4848 6.25078 29.5993 5.69727C29.7017 5.19773 29.9216 4.55234 29.82 3.97331C29.7958 3.83548 29.7228 3.59337 29.6475 3.47815C29.4788 3.2178 29.1369 3.01871 28.8047 3.00121C28.2037 2.97058 27.0929 3.52919 26.5129 3.71588C25.863 3.92518 24.9472 4.31169 24.2844 4.54942L23.1683 4.9651C23.0553 5.01104 22.8866 5.07522 22.7736 5.10001Z"/>
</mask>
<path fill-rule="evenodd" clip-rule="evenodd" d="M22.7736 5.10001L21.2162 5.69217C21.0686 5.74759 20.9691 5.7753 20.8253 5.83219C20.756 5.85917 20.689 5.87813 20.6453 5.89198C20.4683 5.94887 20.0089 6.17785 19.6835 6.25078C19.6775 6.25515 19.6677 6.25297 19.6647 6.26172L19.6052 6.29016C19.5653 6.3062 19.5352 6.31277 19.4938 6.32662L17.7811 6.9691C17.2012 7.21996 16.018 7.61303 15.3832 7.85587L13.5041 8.55231L11.3908 9.35376C10.9683 9.51858 10.5021 9.65714 10.0819 9.84091L9.54412 10.04C9.4319 10.0859 9.40178 10.1049 9.27073 10.1406C9.2632 10.1428 9.2278 10.1523 9.22178 10.1545C9.21801 10.1559 9.21048 10.1596 9.20672 10.1611L7.7238 10.7226C7.53928 10.7904 7.36079 10.8444 7.18606 10.9209C7.0023 11.0012 6.85016 11.0544 6.65435 11.1251L5.90272 11.4044C5.47419 11.5685 5.04641 11.6903 4.65177 11.9193C4.21646 12.1731 3.74876 12.5917 4.15696 13.0861L4.24734 13.1722C4.68566 13.5346 5.82515 13.7577 6.43745 13.9568C6.80949 14.0779 7.16422 14.1712 7.5438 14.2945L8.98379 14.7459C8.98755 14.7473 8.99584 14.7503 8.9996 14.751L10.2784 15.128C10.6143 15.2206 10.6957 15.3483 10.9434 15.1922L12.0588 14.5176C12.0905 14.4972 12.0761 14.506 12.1123 14.4826C12.4926 14.2383 13.8852 13.372 14.2271 13.194C14.3476 13.132 14.3589 13.1102 14.4606 13.0453L14.9057 12.7908C14.9087 12.7893 14.9162 12.7856 14.9192 12.7835C14.9222 12.782 14.9298 12.7776 14.9328 12.7754L15.5375 12.3911C16.3728 11.9069 17.1854 11.3796 18.0138 10.8765L19.8266 9.78403C19.9833 9.68631 20.1219 9.59515 20.2793 9.50107L21.6665 8.66024C21.6718 8.6566 21.6793 8.65222 21.6846 8.64857L22.684 8.03454C22.7608 7.98568 22.8459 7.93682 22.9235 7.89233L24.2889 7.05661C24.4968 6.92097 25.0873 6.56436 25.3283 6.91294C25.2838 7.09672 25.1181 7.25351 24.9638 7.36217L24.7717 7.52406C24.7378 7.55688 24.7295 7.56125 24.6934 7.59261C24.6889 7.59626 24.6821 7.60136 24.6776 7.60574L24.118 8.09944C24.002 8.21321 23.9079 8.27155 23.7911 8.38677L22.6464 9.37856C22.5846 9.43617 22.5469 9.48357 22.4837 9.53754L22.2856 9.69141C22.26 9.71693 22.2705 9.70891 22.2427 9.7359C22.2216 9.75704 22.2276 9.75267 22.1982 9.77892L20.1588 11.5445C20.0872 11.648 20.0383 11.6801 19.9471 11.7421L19.789 11.877C19.7845 11.8806 19.7777 11.8865 19.7739 11.8901L19.2746 12.3277C19.2174 12.3794 19.1842 12.4196 19.127 12.4728L17.3413 14.0225C17.3345 14.0283 17.3157 14.0436 17.3089 14.0494C17.3044 14.0531 17.2984 14.0589 17.2939 14.0626C17.2893 14.067 17.2826 14.0728 17.278 14.0764L16.8954 14.425C16.7697 14.5227 16.7049 14.5964 16.5769 14.6919L15.9698 15.2265C15.9653 15.2301 15.9585 15.2359 15.954 15.2396L14.1646 16.8155C14.1066 16.8994 14.1013 17.1597 14.0953 17.2968L13.9914 18.7787C13.9507 18.9676 13.8754 20.7994 13.8227 21.1736L13.712 22.7057C14.3514 22.7057 14.615 22.422 14.9373 22.1092C15.1015 21.9502 15.2483 21.8372 15.4133 21.6775C15.5549 21.5396 15.7288 21.3486 15.8765 21.2348C16.0745 21.0817 16.5204 20.6295 16.8246 20.3692L17.7819 19.4839L18.1441 19.7376C18.1494 19.7413 18.1569 19.7457 18.1615 19.7493L20.1588 21.1816L23.6902 23.7085C23.694 23.7099 23.7015 23.7143 23.7045 23.7157L24.2182 23.925C24.6663 24.0614 25.0067 24.0111 25.3072 23.7792C25.3403 23.7537 25.3629 23.7354 25.3878 23.7128C25.4179 23.6866 25.4503 23.6574 25.4759 23.6253C25.4796 23.6202 25.4842 23.6136 25.4879 23.6085L25.5437 23.5181C25.8969 22.9537 25.8909 22.6044 26.0279 22.0027C26.0279 22.002 26.0452 21.9342 26.046 21.9334L26.0709 21.8715C26.0822 21.7402 26.1288 21.571 26.1529 21.4623L28.1051 12.5603C28.2015 12.0338 28.3506 11.4876 28.4583 10.9662L28.6865 9.92113C28.752 9.66589 28.8281 9.17145 28.9267 8.81484L29.237 7.36071C29.3658 6.79699 29.4848 6.25078 29.5993 5.69727C29.7017 5.19773 29.9216 4.55234 29.82 3.97331C29.7958 3.83548 29.7228 3.59337 29.6475 3.47815C29.4788 3.2178 29.1369 3.01871 28.8047 3.00121C28.2037 2.97058 27.0929 3.52919 26.5129 3.71588C25.863 3.92518 24.9472 4.31169 24.2844 4.54942L23.1683 4.9651C23.0553 5.01104 22.8866 5.07522 22.7736 5.10001Z" stroke="#224D8F" stroke-width="2" mask="url(#path-1-inside-1_211_1896)"/>
<path fill-rule="evenodd" clip-rule="evenodd" d="M22.7729 5.10034V5.07227L22.7383 5.09602L22.7729 5.10034Z" fill="#224D8F"/>
<path fill-rule="evenodd" clip-rule="evenodd" d="M20.1577 11.5464V11.5176L20.123 11.5413L20.1577 11.5464Z" fill="#224D8F"/>
<path fill-rule="evenodd" clip-rule="evenodd" d="M26.0693 21.8711V21.8999L26.104 21.8761L26.0693 21.8711Z" fill="#224D8F"/>
<path fill-rule="evenodd" clip-rule="evenodd" d="M20.1578 21.1816H20.1284L20.1533 21.2148L20.1578 21.1816Z" fill="#224D8F"/>
<path fill-rule="evenodd" clip-rule="evenodd" d="M19.6836 6.25269V6.22461L19.6489 6.24837L19.6836 6.25269Z" fill="#224D8F"/>
<path fill-rule="evenodd" clip-rule="evenodd" d="M13.5053 8.55347V8.52539L13.4707 8.54915L13.5053 8.55347Z" fill="#224D8F"/>
</svg>
