<svg width="22" height="19" viewBox="0 0 22 19" fill="none" xmlns="http://www.w3.org/2000/svg">
<path d="M0.577989 8.66104C0.628512 8.63468 0.679058 8.60963 0.728317 8.5859C1.58467 8.17201 2.4524 7.78448 3.31886 7.39695C3.3656 7.39695 3.44389 7.34026 3.48809 7.32181C3.55504 7.29149 3.62199 7.2625 3.68893 7.23219C3.81777 7.17419 3.9466 7.1175 4.07417 7.0595C4.33184 6.94483 4.58822 6.83017 4.84589 6.71549C5.35996 6.48614 5.87402 6.25679 6.38809 6.02612C7.41622 5.56741 8.44564 5.10736 9.47378 4.64865C10.5019 4.18995 11.5313 3.72993 12.5594 3.27122C13.5876 2.81252 14.617 2.3525 15.6451 1.89379C16.6732 1.43509 17.7026 0.975068 18.7308 0.516362C18.9594 0.413548 19.207 0.260642 19.452 0.215826C19.6579 0.1776 19.8587 0.103797 20.0658 0.0629353C20.4586 -0.0148339 20.8919 -0.046474 21.2683 0.123564C21.3984 0.182879 21.5183 0.265904 21.6181 0.370036C22.0956 0.863013 22.0286 1.67236 21.9276 2.36569C21.224 7.19793 20.5205 12.0315 19.8157 16.8637C19.7197 17.5267 19.5884 18.2543 19.0869 18.6735C18.6626 19.0281 18.0588 19.0676 17.5346 18.9173C17.0105 18.7657 16.5482 18.4481 16.0947 18.1357C14.214 16.836 12.3321 15.5363 10.4514 14.2367C10.0043 13.9282 9.50662 13.5249 9.51167 12.9647C9.5142 12.6273 9.70743 12.3267 9.90447 12.0591C11.5389 9.83414 13.897 8.30514 15.6514 6.18297C15.899 5.88375 16.0935 5.34333 15.7537 5.17066C15.5516 5.06784 15.3192 5.20754 15.1348 5.34067C12.8158 7.02127 10.4981 8.7032 8.17913 10.3838C7.42256 10.9321 6.62935 11.4963 5.71742 11.6307C4.90148 11.752 4.0805 11.5148 3.29108 11.2722C2.62923 11.0692 1.96863 10.861 1.31057 10.6461C0.960704 10.5328 0.599465 10.4102 0.329169 10.1531C0.0588732 9.8961 -0.0964628 9.46378 0.0664725 9.12107C0.168781 8.90621 0.367086 8.77045 0.575491 8.65972L0.577989 8.66104Z" fill="white"/>
</svg>
