<svg width="28" height="19" viewBox="0 0 28 19" fill="none" xmlns="http://www.w3.org/2000/svg">
<path d="M27.2699 5.13393C27.104 3.53322 26.7472 1.76369 25.4337 0.833766C24.4165 0.112631 23.0793 0.0859715 21.831 0.0874522C19.1923 0.088933 16.5521 0.0919003 13.9133 0.0933811C11.3753 0.0963426 8.83725 0.0978306 6.29921 0.100792C5.23898 0.102273 4.20836 0.0193571 3.22364 0.478396C2.37812 0.872281 1.71622 1.62153 1.31789 2.4552C0.765564 3.61465 0.650069 4.9281 0.583434 6.21045C0.46053 8.54563 0.473857 10.8867 0.620454 13.2204C0.72855 14.9233 1.00249 16.8053 2.31889 17.8907C3.48574 18.8518 5.13236 18.8992 6.6457 18.9006C11.4493 18.9051 16.2544 18.9095 21.0595 18.9125C21.6755 18.914 22.3182 18.9021 22.946 18.834C24.181 18.7007 25.3582 18.3468 26.1519 17.4317C26.953 16.5092 27.1588 15.2254 27.2803 14.0097C27.5764 11.06 27.5734 8.08214 27.2699 5.13393ZM11.1354 13.635V5.36494L18.2964 9.49924L11.1354 13.635Z" fill="white"/>
</svg>
